<?xml version="1.0" encoding="UTF-8"?>
<svg xmlns="http://www.w3.org/2000/svg" xmlns:xlink="http://www.w3.org/1999/xlink" width="435px" height="400px" viewBox="0 0 434 400" version="1.1">
<g id="surface1">
<path style=" stroke:none;fill-rule:nonzero;fill:rgb(100%,100%,100%);fill-opacity:1;" d="M 0.332031 217.238281 L 433.738281 217.238281 L 433.738281 0 L 0.332031 0 Z M 0.332031 217.238281 "/>
<path style=" stroke:none;fill-rule:nonzero;fill:rgb(7.45098%,24.313725%,47.45098%);fill-opacity:1;" d="M 60.527344 352.683594 L 60.527344 277.578125 L 88.089844 277.578125 L 88.089844 350.613281 C 88.089844 369.613281 96.871094 378.410156 112.367188 378.410156 C 128.214844 378.410156 136.136719 369.265625 136.136719 349.757812 L 136.136719 277.578125 L 163.867188 277.578125 L 163.867188 351.480469 C 163.867188 384.800781 144.058594 400 111.855469 400 C 81.023438 400 60.527344 386.011719 60.527344 352.683594 "/>
<path style=" stroke:none;fill-rule:nonzero;fill:rgb(7.45098%,24.313725%,47.45098%);fill-opacity:1;" d="M 245.527344 398.269531 L 245.527344 344.050781 C 245.527344 331.105469 241.914062 324.542969 231.238281 324.542969 C 220.210938 324.542969 214.019531 334.042969 214.019531 349.234375 L 214.019531 398.269531 L 186.976562 398.269531 L 186.976562 327.136719 C 186.976562 317.644531 186.628906 310.90625 186.460938 305.71875 L 212.292969 305.71875 C 212.640625 309.011719 213.492188 319.539062 213.675781 324.710938 C 218.324219 310.042969 229.859375 303.996094 243.125 303.996094 C 266.378906 303.996094 272.917969 319.707031 272.917969 336.972656 L 272.917969 398.269531 L 245.527344 398.269531 "/>
<path style=" stroke:none;fill-rule:nonzero;fill:rgb(7.45098%,24.313725%,47.45098%);fill-opacity:1;" d="M 338.394531 345.949219 L 323.066406 345.949219 L 323.066406 378.246094 L 339.257812 378.246094 C 352.007812 378.246094 360.617188 374.105469 360.617188 361.664062 C 360.617188 349.410156 350.632812 345.949219 338.394531 345.949219 Z M 335.121094 297.269531 L 323.066406 297.269531 L 323.066406 325.410156 L 335.300781 325.410156 C 348.390625 325.410156 354.066406 321.085938 354.066406 311.253906 C 354.066406 301.0625 348.042969 297.269531 335.121094 297.269531 Z M 341.839844 398.269531 L 296.03125 398.269531 L 296.03125 277.578125 L 337.707031 277.578125 C 365.609375 277.578125 381.621094 287.773438 381.621094 308.144531 C 381.621094 321.785156 374.386719 330.765625 359.917969 334.207031 C 378.351562 336.636719 388.515625 347.675781 388.515625 363.746094 C 388.515625 388.074219 368.882812 398.269531 341.839844 398.269531 "/>
<path style=" stroke:none;fill-rule:nonzero;fill:rgb(0%,53.72549%,25.098039%);fill-opacity:1;" d="M 366.90625 78.980469 C 345.03125 94.792969 321.117188 108.492188 295.34375 119.667969 C 282.609375 125.191406 268.882812 129.007812 254.425781 130.820312 C 244.144531 132.109375 233.675781 132.757812 223.058594 132.757812 L 223.058594 217.238281 L 433.738281 217.238281 L 433.738281 30.605469 L 366.914062 78.988281 L 366.90625 78.980469 "/>
<path style=" stroke:none;fill-rule:nonzero;fill:rgb(0%,53.72549%,25.098039%);fill-opacity:1;" d="M 67.164062 78.980469 C 89.046875 94.792969 112.960938 108.492188 138.734375 119.667969 C 151.46875 125.191406 165.191406 129.007812 179.652344 130.820312 C 189.925781 132.109375 200.394531 132.757812 211.019531 132.757812 L 211.019531 217.238281 L 0.332031 217.238281 L 0.332031 30.605469 L 67.160156 78.988281 L 67.164062 78.980469 "/>
<path style=" stroke:none;fill-rule:nonzero;fill:rgb(7.45098%,24.313725%,47.45098%);fill-opacity:1;" d="M 223.058594 0 L 223.058594 120.683594 C 233.167969 120.683594 243.144531 120.058594 252.929688 118.847656 C 266.226562 117.175781 278.84375 113.667969 290.558594 108.589844 C 315.523438 97.769531 338.667969 84.503906 359.855469 69.191406 L 359.855469 69.195312 L 433.738281 15.707031 L 433.738281 0 L 223.058594 0 "/>
<path style=" stroke:none;fill-rule:nonzero;fill:rgb(7.45098%,24.313725%,47.45098%);fill-opacity:1;" d="M 211.019531 0 L 211.019531 120.683594 C 200.898438 120.683594 190.9375 120.058594 181.152344 118.847656 L 181.148438 118.847656 C 167.847656 117.175781 155.226562 113.667969 143.511719 108.589844 C 118.550781 97.769531 95.40625 84.503906 74.214844 69.191406 L 74.214844 69.195312 L 0.332031 15.707031 L 0.332031 0 L 211.019531 0 "/>
</g>
</svg>
